<svg width="486" height="288" viewBox="0 0 486 288" fill="none" xmlns="http://www.w3.org/2000/svg">
<g clip-path="url(#clip0_2107_17221)">
<path d="M425.483 138.4H425.382L393.536 181L330.045 202.2H329.944L298.098 244.7L234.607 266H234.507L202.66 308.5L159.93 322.8H161.24L203.063 308.8L234.91 266.3L298.401 245H298.501L330.348 202.5L393.838 181.3H393.939L425.785 138.7L489.276 117.5H489.377L510.339 89.5V88.6L488.974 117.2L425.483 138.4ZM417.522 133.1H417.421L385.575 175.6L322.084 196.9H321.983L290.137 239.4L226.646 260.6H226.545L194.699 303.1L136.146 322.7H137.355L195.102 303.4L226.948 260.9L290.54 239.6L322.386 197.1L385.978 175.9L417.824 133.4L481.315 112.2H481.416L510.339 73.6V72.7L481.012 111.9L417.522 133.1ZM449.166 26.8L417.421 69.4L353.829 90.6H353.728L321.983 133.1L258.391 154.4L226.545 196.9L162.953 218.1L131.107 260.6L67.6161 281.9H67.5153L36.8784 322.8H37.5839L67.9184 282.2L131.409 261H131.51L163.356 218.4L226.847 197.2H226.948L258.794 154.7L322.285 133.4H322.386L354.232 90.9L417.723 69.7H417.824L449.67 27.2L510.339 6.9V6.4L449.267 26.8H449.166ZM457.128 32.2L425.382 74.7L361.791 95.9H361.69L329.944 138.4L266.353 159.7H266.252L234.507 202.2L170.915 223.4L139.069 265.9L75.4769 287.2L48.8712 322.8H49.4758L75.88 287.5L139.371 266.3H139.472L171.318 223.8L234.809 202.5H234.91L266.756 160L330.247 138.8H330.348L362.194 96.3L425.685 75.1H425.785L457.632 32.5L510.339 14.9V14.5L457.229 32.1L457.128 32.2ZM496.936 186.3L465.089 228.8L401.598 250H401.498L369.651 292.6L306.16 313.8H306.06L299.408 322.8H300.013L306.463 314.1L370.055 292.9H370.155L401.901 250.4L465.492 229.2L497.339 186.6L510.339 182.2V181.8L497.036 186.2L496.936 186.3ZM504.897 191.6L473.051 234.1L409.56 255.3H409.459L377.613 297.9L314.122 319.1H314.021L311.3 322.8H311.905L314.424 319.4L378.016 298.2L409.862 255.6L473.454 234.4L505.3 191.9L510.339 190.2V189.8L504.998 191.6H504.897ZM441.305 149L409.459 191.5L345.868 212.7L314.021 255.3L250.43 276.6L218.583 319.1L207.699 322.8H209.009L218.886 319.4H218.987L250.833 276.9L314.324 255.7H314.424L346.271 213.2L409.762 192H409.862L441.709 149.5L505.199 128.2H505.3L510.339 121.5V120.6L504.897 127.9L441.305 149ZM433.344 143.7L401.498 186.2L338.007 207.4H337.906L306.06 249.9L242.569 271.2H242.468L210.622 313.7L183.815 322.7H185.125L210.924 314H211.025L242.871 271.5L306.362 250.3H306.463L338.309 207.8L401.8 186.6H401.901L433.747 144L497.238 122.8H497.339L510.339 105.4V104.6L496.936 122.5L433.344 143.7ZM488.974 53.4L457.128 95.9L393.637 117.2H393.536L361.69 159.7L298.199 180.9H298.098L266.252 223.4L202.761 244.6H202.66L170.915 287.1L107.323 308.5H107.222L96.5397 322.8H97.2452L107.625 308.8L171.217 287.6H171.318L203.063 245L266.655 223.8H266.756L298.501 181.2L362.093 160H362.194L393.939 117.5L457.531 96.2H457.632L489.377 53.7L510.339 46.7V46.3L489.075 53.4H488.974ZM504.897 64L473.051 106.6L409.56 127.8H409.459L377.613 170.3L314.122 191.6H314.021L282.175 234.1L218.684 255.3H218.583L186.737 297.9L123.246 319.1H123.145L120.424 322.8H121.029L123.549 319.4L187.14 298.2H187.241L218.987 255.6L282.578 234.4H282.679L314.424 191.9L378.016 170.6L409.862 128.1L473.454 106.9L505.3 64.4L510.339 62.8V62.3L504.998 64.1L504.897 64ZM496.936 58.7L465.089 101.2L401.598 122.5H401.498L369.651 165L306.16 186.2H306.06L274.214 228.7L210.723 249.9H210.622L178.776 292.5L115.285 313.7H115.184L108.532 322.7H109.137L115.587 314L179.179 292.9H179.279L211.025 250.4L274.617 229.1H274.717L306.463 186.6L370.055 165.3H370.155L401.901 122.8L465.492 101.6L497.339 59L510.339 54.7V54.3L497.036 58.7H496.936ZM465.089 37.5L433.344 80L369.752 101.2H369.651L337.906 143.8L274.314 165H274.214L242.468 207.5L178.876 228.8H178.776L147.03 271.3L83.4385 292.5H83.3377L60.7631 322.8H61.4686L83.8416 292.8L147.332 271.6H147.433L179.279 229.1L242.77 207.8H242.871L274.717 165.3L338.208 144.1H338.309L370.155 101.6L433.646 80.4H433.747L465.492 37.9L510.339 22.9V22.5L465.19 37.5H465.089ZM441.305 21.5L409.459 64L345.868 85.3L314.021 127.8L250.43 149L218.583 191.5L155.092 212.7H154.992L123.145 255.3L59.6545 276.5H59.5538L27.7075 319.1L16.8234 322.8H18.1335L28.1107 319.4L59.9569 276.9L123.448 255.7H123.549L155.395 213.2L218.886 192H218.987L250.833 149.5L314.324 128.2H314.424L346.271 85.7L409.762 64.5H409.862L441.709 22L505.199 0.600002H505.3L510.339 -6.2V-7L504.897 0.300003L441.305 21.5ZM473.051 42.8L441.305 85.3L377.714 106.5H377.613L345.868 149L282.276 170.2H282.175L250.43 212.8L186.838 234.1H186.737L154.992 276.6L91.4 297.8H91.2992L72.7558 322.8H73.3605L91.8031 298.2L155.294 276.9H155.395L187.241 234.4L250.732 213.2H250.833L282.679 170.6L346.17 149.4H346.271L378.016 106.8L441.608 85.6H441.709L473.454 43.1L510.339 30.8V30.3L473.152 42.8H473.051ZM488.974 181L457.128 223.5L393.637 244.7H393.536L361.69 287.2L298.199 308.5H298.098L287.416 322.8H288.02L298.501 308.8L362.093 287.6H362.194L393.939 245.1L457.531 223.9H457.632L489.377 181.3L510.339 174.3V173.9L489.075 180.9L488.974 181ZM496.936 -5L433.344 16.2L401.498 58.7L338.007 80H337.906L306.06 122.5L242.569 143.7H242.468L210.622 186.2L147.131 207.4H147.03L115.184 249.9L51.693 271.2H51.5922L19.746 313.8L-7.0613 322.8H-5.75117L20.1491 314.1L51.9953 271.6L115.587 250.4L147.433 207.9L210.924 186.7H211.025L242.871 144.1L306.362 122.9H306.463L338.309 80.4L401.8 59.1H401.901L433.747 16.6L497.238 -4.6H497.339L510.339 -22.1V-23L496.936 -5ZM481.012 48.1L449.166 90.6L385.675 111.8H385.575L353.728 154.3L290.237 175.5H290.137L258.391 218.1L194.799 239.3H194.699L162.953 281.9L99.3616 303.2H99.2608L84.6478 322.8H85.2525L99.7647 303.5L163.256 282.2H163.356L195.102 239.7L258.694 218.5H258.794L290.54 175.9L354.131 154.7H354.232L385.978 112.2L449.569 90.9H449.67L481.416 48.4L510.339 38.7V38.3L481.113 48.1H481.012ZM465.089 292.6L442.515 322.8H443.12L465.492 292.8L510.339 277.9V277.4L465.19 292.5L465.089 292.6ZM473.051 297.9L454.407 322.8H455.112L473.454 298.2L510.339 285.8V285.4L473.152 297.8L473.051 297.9ZM449.166 281.9L418.63 322.8H419.336L449.67 282.2L510.339 261.9V261.5L449.267 281.9H449.166ZM481.012 303.2L466.399 322.8H467.004L481.416 303.5L510.339 293.8V293.4L481.113 303.2H481.012ZM441.305 276.6L409.459 319.1L398.575 322.8H399.784L409.762 319.4H409.862L441.709 276.9L505.199 255.7H505.3L510.339 249V248.2L504.897 255.5L441.305 276.6ZM504.897 319.1L502.176 322.8H502.781L505.3 319.4L510.339 317.7V317.3L504.998 319.1H504.897ZM496.936 313.8L490.183 322.8H490.889L497.339 314.1L510.339 309.8V309.3L497.036 313.8H496.936ZM481.012 175.6L449.166 218.2L385.675 239.4H385.575L353.728 281.9L290.237 303.2H290.137L275.524 322.8H276.128L290.54 303.5L354.131 282.2H354.232L385.978 239.7L449.569 218.5H449.67L481.416 175.9L510.339 166.3V165.9L481.113 175.6H481.012ZM488.974 308.5L478.291 322.8H478.896L489.377 308.8L510.339 301.8V301.4L489.075 308.5H488.974ZM433.344 271.3L401.498 313.8L374.69 322.8H376.001L401.8 314.1H401.901L433.747 271.6L497.238 250.4H497.339L510.339 233.1V232.2L496.936 250.1L433.344 271.3ZM457.128 159.7L425.382 202.2L361.791 223.4H361.69L329.944 265.9L266.353 287.1H266.252L239.747 322.7H240.352L266.756 287.4L330.247 266.2H330.348L362.194 223.7L425.685 202.4H425.785L457.632 159.9L510.339 142.3V141.9L457.229 159.7H457.128ZM473.051 170.3L441.305 212.8L377.714 234.1H377.613L345.868 276.6L282.276 297.8H282.175L263.531 322.8H264.236L282.679 298.2L346.17 276.9H346.271L378.016 234.4L441.608 213.2H441.709L473.454 170.7L510.339 158.4V157.9L473.152 170.3H473.051ZM465.089 165L433.344 207.5L369.752 228.8H369.651L337.906 271.3L274.314 292.5H274.214L251.639 322.7H252.244L274.717 292.7L338.208 271.5H338.309L370.155 229L433.646 207.7H433.747L465.492 165.2L510.339 150.2V149.9L465.19 165H465.089ZM449.166 154.4L417.421 196.9L353.829 218.1H353.728L321.983 260.7L258.391 281.9L227.754 322.8H228.46L258.794 282.2L322.285 261H322.386L354.232 218.4L417.723 197.2H417.824L449.67 154.7L510.339 134.4V134L449.267 154.4H449.166ZM425.483 266H425.382L393.536 308.5L350.806 322.8H352.116L393.838 308.8H393.939L425.785 266.3L489.276 245H489.377L510.339 217V216.2L488.974 244.7L425.483 266ZM417.522 260.6H417.421L385.575 303.1L326.921 322.7H328.231L385.978 303.4L417.824 260.9L481.315 239.6H481.416L510.339 201V200.1L481.012 239.3L417.522 260.6ZM457.128 287.2L430.623 322.8H431.228L457.632 287.5L510.339 269.9V269.5L457.229 287.2H457.128ZM12.2883 117.5L75.7792 96.2H75.88L107.625 53.7L171.217 32.5H171.318L203.063 -10.1L266.655 -31.3H266.756L269.477 -35H268.771L266.252 -31.6L202.761 -10.4H202.66L170.915 32.2L107.323 53.4H107.222L75.4769 95.9L11.8852 117.2H11.7844L-19.961 159.7L-25 161.4V161.8L-19.5579 160L12.2883 117.5ZM-3.6348 170.6L28.1107 128.1L91.7023 106.9H91.8031L123.549 64.4L187.14 43.2H187.241L218.987 0.600002L282.578 -20.7H282.679L293.261 -35H292.656L282.175 -21L218.684 0.200001H218.583L186.737 42.8L123.246 64H123.145L91.2992 106.6L27.8083 127.8H27.7075L-4.1387 170.3L-25 177.3V177.8L-3.73558 170.6H-3.6348ZM51.8946 207.8H51.9953L83.8416 165.3L147.332 144.1H147.433L179.279 101.6L242.77 80.4H242.871L274.717 37.9L338.208 16.6H338.309L370.155 -25.9L396.963 -34.9H395.652L369.752 -26.2H369.651L337.906 16.2L274.314 37.4H274.214L242.468 80L178.876 101.2H178.776L147.03 143.8L83.4385 165H83.3377L51.5922 207.5L-11.9995 228.8L-25 246.1V247L-11.5964 229.1L51.8946 207.8ZM43.933 202.5H44.0338L75.88 160L139.371 138.8H139.472L171.318 96.3L234.809 75.1H234.91L266.756 32.5L330.247 11.3H330.348L362.194 -31.2L373.078 -34.9H371.768L361.791 -31.5H361.69L329.944 10.9L266.353 32.1H266.252L234.507 74.7L170.915 95.9L139.069 138.4L75.4769 159.7L43.6307 202.2L-19.961 223.4L-25 230.1V230.9L-19.5579 223.7L43.933 202.5ZM-8.67377 -35H-9.9839L-19.961 -31.6L-25 -24.9V-24L-19.5579 -31.3L-8.67377 -35ZM20.1491 186.6L51.9953 144L115.587 122.8L147.433 80.3L210.924 59H211.025L242.871 16.5L306.362 -4.7H306.463L329.138 -34.9H328.433L306.06 -4.9L242.569 16.3H242.468L210.622 58.7L147.131 80H147.03L115.184 122.5L51.693 143.7H51.5922L19.746 186.3L-25 201.2V201.7L20.1491 186.6ZM12.2883 181.2L44.0338 138.7L107.625 117.5L139.472 75L203.063 53.7L234.91 11.2L298.401 -10H298.501L317.145 -34.9H316.541L298.098 -10.3L234.607 10.9H234.507L202.66 53.4L139.169 74.6H139.069L107.222 117.1L43.7314 138.3H43.6307L11.7844 181L-25 193.3V193.7L12.1875 181.3L12.2883 181.2ZM4.32675 175.9L36.0722 133.4L99.6639 112.2H99.7647L131.51 69.6L195.102 48.4L226.948 5.9L290.54 -15.3L305.254 -34.9H304.548L290.137 -15.7L226.646 5.6H226.545L194.699 48.1L131.208 69.3H131.107L99.2608 111.9L35.7699 133.1H35.6691L3.82286 175.6L-25 185.3V185.7L4.22598 176L4.32675 175.9ZM-3.6348 298.2L28.1107 255.6L91.7023 234.4H91.8031L123.549 191.9L187.14 170.6H187.241L218.987 128.1L282.578 106.9H282.679L314.424 64.4L378.016 43.2L409.862 0.600002L473.454 -20.7L484.137 -35H483.532L473.051 -21L409.56 0.200001H409.459L377.613 42.8L314.122 64H314.021L282.175 106.6L218.684 127.8H218.583L186.737 170.3L123.246 191.6H123.145L91.2992 234.1L27.8083 255.3H27.7075L-4.1387 297.9L-25 304.9V305.3L-3.73558 298.2H-3.6348ZM-11.5964 292.8L20.1491 250.3L83.7408 229.1H83.8416L115.587 186.6L179.179 165.3H179.279L211.025 122.8L274.617 101.6H274.717L306.463 59.1L370.055 37.9H370.155L401.901 -4.8L465.492 -26L472.245 -35H471.64L465.089 -26.3L401.598 -5.1H401.498L369.651 37.5L306.16 58.7H306.06L274.214 101.2L210.723 122.5H210.622L178.776 165L115.285 186.2H115.184L83.3377 228.8L19.8468 250H19.746L-11.9995 292.6L-25 296.9V297.3L-11.6971 292.9L-11.5964 292.8ZM12.2883 245L75.7792 223.8H75.88L107.625 181.2L171.217 160H171.318L203.063 117.5L266.655 96.2H266.756L298.501 53.7L362.093 32.5H362.194L393.939 -10.1L457.531 -31.3H457.632L460.353 -35H459.647L457.128 -31.6L393.637 -10.4H393.536L361.69 32.2L298.199 53.4H298.098L266.252 95.9L202.761 117.2H202.66L170.915 159.7L107.323 180.9H107.222L75.4769 223.5L11.8852 244.7H11.7844L-19.961 287.2L-25 288.9V289.3L-19.5579 287.5L12.2883 245ZM59.8561 213.2H59.9569L91.8031 170.7L155.294 149.5H155.395L187.241 106.9L250.732 85.7H250.833L282.679 43.1L346.17 21.8H346.271L378.016 -20.7L420.746 -35H419.537L377.714 -21H377.613L345.868 21.5L282.276 42.8H282.175L250.43 85.3L186.838 106.5H186.737L154.992 149L91.4 170.2H91.2992L59.5538 212.8L-4.03792 234.1H-4.1387L-25 262.1V262.9L-3.6348 234.4L59.8561 213.2ZM12.2883 308.8L44.0338 266.3L107.625 245L139.472 202.5L203.063 181.3L234.91 138.8L298.401 117.6H298.501L330.348 75.1L393.838 53.8H393.939L425.785 11.2L489.276 -10H489.377L508.021 -34.9H507.417L488.974 -10.3L425.483 10.9H425.382L393.536 53.4L330.045 74.6H329.944L298.098 117.1L234.607 138.3H234.507L202.66 180.9L139.169 202.1H139.069L107.222 244.6L43.7314 265.9H43.6307L11.7844 308.5L-25 320.8V321.2L12.1875 308.8H12.2883ZM67.8177 218.5H67.9184L99.7647 175.9L163.256 154.7H163.356L195.102 112.2L258.694 90.9H258.794L290.54 48.4L354.131 27.2H354.232L385.978 -15.3L444.631 -34.9H443.321L385.675 -15.7H385.575L353.728 26.8L290.237 48.1H290.137L258.391 90.6L194.799 111.8H194.699L162.953 154.3L99.3616 175.5H99.2608L67.5153 218.2L3.92364 239.4H3.82286L-25 278V278.9L4.32675 239.7L67.8177 218.5ZM28.1107 191.9L59.9569 149.4L123.448 128.1H123.549L155.395 85.6L218.886 64.4H218.987L250.833 21.9L314.324 0.600002H314.424L341.03 -35H340.425L314.021 0.300003L250.43 21.5L218.583 64L155.092 85.3H154.992L123.145 127.8L59.6545 149H59.5538L27.7075 191.6L-25 209.2V209.6L28.1107 191.9ZM4.32675 303.5L36.0722 261L99.6639 239.7H99.7647L131.51 197.2L195.102 176L226.948 133.5L290.54 112.3L322.386 69.7L385.978 48.5L417.824 5.9L481.315 -15.3H481.416L496.129 -34.9H495.424L481.012 -15.7L417.522 5.6H417.421L385.575 48.1L322.084 69.3H321.983L290.137 111.9L226.646 133.1H226.545L194.699 175.6L131.208 196.9H131.107L99.2608 239.4L35.7699 260.6H35.6691L3.82286 303.2L-25 312.8V313.3L4.22598 303.5H4.32675ZM-11.5964 165.3L20.1491 122.8L83.7408 101.6H83.8416L115.587 59.1L179.179 37.9H179.279L211.025 -4.8L274.617 -26H274.717L281.369 -35H280.764L274.214 -26.3L210.723 -5.1H210.622L178.776 37.5L115.285 58.7H115.184L83.3377 101.2L19.8468 122.5H19.746L-11.9995 165L-25 169.4V169.8L-11.6971 165.3H-11.5964ZM4.32675 48.4L36.0722 5.9L99.6639 -15.3H99.7647L114.378 -35H113.773L99.2608 -15.7L35.7699 5.6H35.6691L3.82286 48.1L-25 57.8V58.2L4.22598 48.4H4.32675ZM20.1491 59L51.9953 16.5L115.587 -4.7L138.262 -34.9H137.557L115.184 -4.9L51.693 16.3H51.5922L19.746 58.7L-25 73.7V74.1L20.1491 59ZM28.1107 64.3L59.9569 21.8L123.448 0.600002H123.549L150.154 -35H149.55L123.145 0.300003L59.6545 21.5H59.5538L27.7075 64L-25 81.7V82.1L28.1107 64.4V64.3ZM12.2883 53.7L44.0338 11.2L107.625 -10L126.27 -34.9H125.665L107.222 -10.3L43.7314 10.9H43.6307L11.7844 53.4L-25 65.7V66.2L12.1875 53.7H12.2883ZM36.0722 69.6L67.9184 27.1L131.409 5.9H131.51L162.046 -35H161.442L131.107 5.6L67.6161 26.8H67.5153L35.6691 69.4L-25 89.6V90.1L35.9714 69.7L36.0722 69.6ZM15.2109 -35H13.9008L-11.9995 -26.3L-25 -8.9V-8.1L-11.5964 -26L15.2109 -35ZM62.8795 -35H61.6701L3.92364 -15.7H3.82286L-25 22.9V23.8L4.32675 -15.4L62.8795 -35ZM39.0956 -35H37.7855L-4.03792 -21H-4.1387L-25 7V7.9L-3.6348 -20.7L39.0956 -35ZM43.933 75H44.0338L75.88 32.4L139.371 11.2H139.472L171.318 -31.3L182.202 -35H180.892L170.915 -31.6L139.069 10.9L75.4769 32.1L43.6307 74.7L-19.961 95.9L-25 102.7V103.5L-19.5579 96.2L43.933 75ZM-3.6348 43.1L28.1107 0.600002L91.7023 -20.7H91.8031L102.486 -35H101.78L91.2992 -21L27.8083 0.200001H27.7075L-4.1387 42.8L-25 49.8V50.2L-3.73558 43.1H-3.6348ZM67.8177 90.9H67.9184L99.7647 48.4L163.256 27.2H163.356L195.102 -15.3L253.755 -34.9H252.445L194.799 -15.7H194.699L162.953 26.8L99.3616 48.1H99.2608L67.5153 90.6L3.92364 111.8H3.82286L-25 150.4V151.2L4.32675 112.1L67.8177 90.9ZM51.8946 80.3H51.9953L83.8416 37.8L147.332 16.5H147.433L179.279 -26L206.087 -35H204.777L178.876 -26.3H178.776L147.03 16.2L83.4385 37.4H83.3377L51.5922 80L-11.9995 101.2L-25 118.6V119.4L-11.5964 101.5L51.8946 80.3ZM59.8561 85.6H59.9569L91.8031 43.1L155.294 21.8H155.395L187.241 -20.7L229.871 -35H228.661L186.838 -21H186.737L154.992 21.5L91.4 42.8H91.2992L59.5538 85.3L-4.03792 106.5H-4.1387L-25 134.4V135.3L-3.6348 106.8L59.8561 85.6ZM-11.5964 37.8L20.1491 -4.8L83.7408 -26H83.8416L90.493 -35H89.8883L83.3377 -26.3L19.8468 -5.1H19.746L-11.9995 37.5L-25 41.8V42.2L-11.6971 37.8H-11.5964ZM12.2883 -10.1L75.7792 -31.3H75.88L78.601 -35H77.9964L75.4769 -31.6L11.8852 -10.4H11.7844L-19.961 32.2L-25 33.8V34.3L-19.5579 32.4L12.2883 -10.1ZM36.0722 197.2L67.9184 154.7L131.409 133.4H131.51L163.356 90.9L226.847 69.7H226.948L258.794 27.2L322.285 5.9H322.386L352.922 -35H352.317L321.983 5.6L258.391 26.8L226.545 69.4L162.953 90.6L131.107 133.1L67.6161 154.4H67.5153L35.6691 196.9L-25 217.2V217.6L35.9714 197.2H36.0722Z" fill="#FCE6E6"/>
<path d="M251.551 399.398L251.551 399.257L191.004 354.692L160.873 265.844L160.873 265.703L100.469 221.138L70.1961 132.29L70.1961 132.149L9.79186 87.5836L-10.5324 27.7875L-10.5324 29.6209L9.36549 88.1477L69.7697 132.713L100.043 221.561L100.043 221.702L160.447 266.267L190.578 355.115L190.578 355.256L251.124 399.821L281.255 488.669L281.255 488.81L321.051 518.144L322.33 518.144L281.682 488.246L251.551 399.398ZM259.084 388.257L259.084 388.116L198.679 343.551L168.406 254.703L168.406 254.562L108.002 209.996L77.8709 121.148L77.8709 121.007L17.4667 76.4424L-10.3902 -5.49525L-10.3902 -3.80291L17.0404 77.0065L77.4446 121.572L107.718 210.561L168.122 255.126L198.253 344.115L258.657 388.68L288.788 477.528L288.788 477.669L343.649 518.144L344.929 518.144L289.215 477.105L259.084 388.257ZM410.165 432.54L349.619 388.116L319.488 299.127L319.488 298.986L259.084 254.562L228.81 165.572L168.406 121.007L138.275 32.0184L77.8709 -12.5467L47.5978 -101.395L47.5978 -101.536L-10.5324 -144.408L-10.5324 -143.421L47.1714 -100.972L77.3025 -12.1236L77.3025 -11.9826L137.849 32.5825L167.98 121.431L167.98 121.572L228.384 166.137L258.657 254.985L258.657 255.126L319.061 299.691L349.192 388.539L349.192 388.68L409.597 433.245L438.449 518.144L439.159 518.144L410.165 432.681L410.165 432.54ZM402.49 443.681L342.086 399.257L311.955 310.268L311.955 310.127L251.551 265.703L221.278 176.714L221.278 176.573L160.873 132.149L130.742 43.1596L70.3382 -1.40543L40.0651 -90.3945L-10.5324 -127.626L-10.5324 -126.78L39.6386 -89.8304L69.7697 -0.982334L69.7697 -0.841312L130.174 43.7237L160.447 132.572L160.447 132.713L220.851 177.278L250.982 266.126L250.982 266.267L311.386 310.832L341.518 399.68L341.518 399.821L402.064 444.386L427.078 518.144L427.647 518.144L402.632 443.822L402.49 443.681ZM183.472 499.387L123.068 454.822L92.9365 365.974L92.9365 365.833L32.3901 321.268L2.2591 232.42L2.2591 232.279L-10.5324 222.971L-10.5324 223.817L1.83268 232.843L31.9638 321.832L31.9638 321.973L92.368 366.397L122.499 455.386L183.045 499.951L189.299 518.144L189.867 518.144L183.614 499.528L183.472 499.387ZM175.939 510.528L115.535 465.963L85.4037 377.115L85.4037 376.974L24.8574 332.409L-5.27367 243.561L-5.27367 243.42L-10.5324 239.612L-10.5324 240.459L-5.70003 243.984L24.431 332.973L84.9773 377.538L115.108 466.528L175.513 511.093L177.929 518.144L178.497 518.144L175.939 510.669L175.939 510.528ZM236.485 421.539L176.081 376.974L145.95 287.985L85.4037 243.42L55.1305 154.431L-5.27367 109.866L-10.5324 94.6351L-10.5324 96.4684L-5.70003 110.289L-5.70003 110.43L54.7042 154.995L84.8352 243.843L84.8352 243.984L145.239 288.549L175.37 377.397L175.37 377.538L235.775 422.104L266.048 510.952L266.048 511.093L275.57 518.144L276.849 518.144L266.474 510.528L236.485 421.539ZM244.018 410.398L183.614 365.833L153.483 276.985L153.483 276.844L93.0786 232.279L62.8055 143.431L62.8055 143.29L2.40126 98.7249L-10.3902 61.2113L-10.3902 63.0447L1.97484 99.148L1.97484 99.289L62.379 143.854L92.5101 232.702L92.5101 232.843L152.914 277.408L183.045 366.256L183.045 366.397L243.592 410.962L273.723 499.81L273.723 499.951L298.453 518.144L299.59 518.144L274.149 499.387L244.018 410.398ZM372.359 488.246L311.955 443.681L281.682 354.833L281.682 354.692L221.278 310.127L191.147 221.279L191.147 221.138L130.742 176.573L100.611 87.7247L100.611 87.5836L40.2071 43.1596L9.79186 -45.8294L9.79186 -45.9705L-10.5324 -60.9195L-10.5324 -59.9323L9.3655 -45.4063L39.4965 43.5827L39.4965 43.7237L100.043 88.1477L130.174 177.137L130.174 177.278L190.72 221.702L220.851 310.691L220.851 310.832L281.255 355.256L311.529 444.245L311.529 444.386L371.933 488.81L381.882 518.144L382.45 518.144L372.359 488.387L372.359 488.246ZM357.294 510.528L296.747 465.963L266.616 377.115L266.616 376.974L206.212 332.409L175.939 243.561L175.939 243.42L115.535 198.855L85.4037 110.007L85.4037 109.866L24.8574 65.3011L-5.27366 -23.5469L-5.27366 -23.6879L-10.5324 -27.4957L-10.5324 -26.6495L-5.70002 -23.1238L24.431 65.8652L24.431 66.0063L84.9773 110.43L115.108 199.419L115.108 199.56L175.513 243.984L205.786 332.973L266.19 377.539L296.321 466.528L356.725 511.093L358.999 518.144L359.71 518.144L357.152 510.669L357.294 510.528ZM364.826 499.387L304.422 454.822L274.149 365.974L274.149 365.833L213.745 321.268L183.614 232.42L183.614 232.279L123.21 187.714L93.0786 98.8659L93.0786 98.7249L32.5323 54.1598L2.40127 -34.6882L2.40127 -34.8292L-10.3902 -44.1371L-10.3902 -43.2909L1.97484 -34.2651L31.9638 54.724L31.9638 54.865L92.368 99.289L122.641 188.278L122.641 188.419L183.045 232.843L213.319 321.832L213.319 321.973L273.723 366.397L303.854 455.386L364.4 499.951L370.512 518.144L371.08 518.144L364.826 499.528L364.826 499.387ZM394.957 454.822L334.553 410.398L304.422 321.409L304.422 321.268L243.876 276.844L213.745 187.855L213.745 187.714L153.341 143.29L123.068 54.3009L123.068 54.1598L62.6633 9.73584L32.5323 -79.2532L32.5323 -79.3943L-10.5324 -110.985L-10.5324 -109.997L32.1059 -78.6891L62.2369 10.1589L62.2369 10.3L122.641 54.865L152.914 143.713L152.914 143.854L213.319 188.419L243.45 277.267L243.45 277.408L303.854 321.973L333.985 410.821L333.985 410.962L394.389 455.386L415.708 518.144L416.277 518.144L394.957 454.963L394.957 454.822ZM417.698 421.539L357.294 376.974L327.021 287.985L266.616 243.42L236.485 154.431L176.081 109.866L145.95 21.0181L145.95 20.8771L85.4037 -23.6879L55.2727 -112.536L55.2727 -112.677L-5.27365 -157.242L-10.5324 -172.473L-10.5324 -170.64L-5.70002 -156.678L54.7042 -112.113L84.8352 -23.2649L84.8352 -23.1238L145.239 21.4412L175.37 110.289L175.37 110.43L235.775 154.995L266.048 243.843L266.048 243.984L326.452 288.549L356.583 377.397L356.583 377.539L416.987 422.104L447.403 510.952L447.403 511.093L457.067 518.144L458.204 518.144L447.829 510.528L417.698 421.539ZM387.425 465.963L327.021 421.539L296.889 332.55L296.889 332.409L236.485 287.985L206.354 198.996L206.354 198.855L145.808 154.431L115.535 65.4421L115.535 65.3011L55.1305 20.8771L24.9995 -68.112L24.9995 -68.253L-10.5324 -94.2023L-10.5324 -93.3561L24.431 -67.5478L54.7042 21.3002L54.7042 21.4412L115.108 66.0063L145.239 154.854L145.239 154.995L205.786 199.56L235.917 288.408L235.917 288.549L296.463 332.973L326.594 421.963L326.594 422.104L386.998 466.528L404.48 518.144L405.191 518.144L387.425 466.104L387.425 465.963ZM191.004 488.246L130.6 443.681L100.469 354.833L100.469 354.692L40.065 310.127L9.79185 221.279L9.79185 221.138L-10.5324 206.189L-10.5324 207.035L9.36549 221.702L39.4965 310.691L39.4965 310.832L99.9007 355.256L130.032 444.245L130.032 444.386L190.578 488.81L200.527 518.144L201.096 518.144L191.147 488.387L191.004 488.246ZM455.362 499.387L425.231 410.398L364.826 365.833L334.553 276.985L334.553 276.844L274.149 232.279L244.018 143.431L244.018 143.29L183.614 98.7249L153.483 9.87688L153.483 9.73584L93.0786 -34.8292L62.8055 -123.677L62.8055 -123.818L2.25912 -168.383L-10.5323 -205.897L-10.5323 -204.064L1.8327 -167.819L62.2369 -123.254L92.368 -34.2651L152.772 10.3L182.903 99.148L182.903 99.289L243.45 143.854L273.581 232.702L273.581 232.843L333.985 277.408L364.258 366.256L364.258 366.397L424.662 410.962L454.793 499.81L454.793 499.951L479.666 518.144L480.945 518.144L455.362 499.387ZM379.892 477.105L319.488 432.54L289.357 343.692L289.357 343.551L228.953 298.986L198.821 210.137L198.821 209.996L138.275 165.572L108.144 76.5834L108.144 76.4424L47.5978 32.0184L17.3246 -56.9707L17.3246 -57.1117L-10.5324 -77.5609L-10.5324 -76.7147L16.8982 -56.4066L47.1714 32.4414L47.1714 32.5825L107.576 77.0065L137.707 165.996L137.707 166.137L198.253 210.561L228.384 299.55L228.384 299.691L288.788 344.115L319.061 433.104L319.061 433.245L379.466 477.669L393.252 518.144L393.82 518.144L379.892 477.246L379.892 477.105ZM32.3901 454.822L-10.5324 423.232L-10.5324 424.078L32.1059 455.386L53.2829 518.144L53.9935 518.144L32.5323 454.963L32.3901 454.822ZM24.8574 465.963L-10.5324 439.873L-10.5324 440.86L24.431 466.528L42.0548 518.144L42.6233 518.144L24.9995 466.104L24.8574 465.963ZM47.5978 432.54L-10.5324 389.808L-10.5324 390.795L47.1714 433.245L76.0233 518.144L76.5918 518.144L47.5978 432.681L47.5978 432.54ZM17.3246 477.105L-10.5324 456.655L-10.5324 457.502L16.8982 477.669L30.6846 518.144L31.2531 518.144L17.3246 477.246L17.3246 477.105ZM55.1305 421.539L-5.27368 376.974L-10.5324 361.743L-10.5324 363.436L-5.70004 377.397L-5.70004 377.538L54.7042 422.103L84.8352 510.952L84.8352 511.093L94.3577 518.144L95.4947 518.144L85.1194 510.528L55.1305 421.539ZM-5.27368 510.528L-10.5324 506.721L-10.5324 507.567L-5.70004 511.093L-3.28388 518.144L-2.71537 518.144L-5.27368 510.669L-5.27368 510.528ZM2.25909 499.387L-10.5324 489.938L-10.5324 490.925L1.83267 499.951L7.94418 518.144L8.65484 518.144L2.25909 499.528L2.25909 499.387ZM198.679 477.105L138.133 432.54L108.002 343.692L108.002 343.551L47.5978 298.986L17.3246 210.137L17.3246 209.996L-10.5324 189.547L-10.5324 190.393L16.8982 210.561L47.1714 299.55L47.1714 299.691L107.576 344.115L137.707 433.104L137.707 433.245L198.253 477.669L211.897 518.144L212.466 518.144L198.679 477.246L198.679 477.105ZM9.79184 488.246L-10.5324 473.297L-10.5324 474.143L9.36548 488.81L19.3144 518.144L19.8829 518.144L9.79184 488.387L9.79184 488.246ZM62.6633 410.398L2.2591 365.833L-10.5324 328.319L-10.5324 330.153L1.83268 366.256L1.83268 366.397L62.2369 410.962L92.3679 499.81L92.3679 499.951L116.956 518.144L118.235 518.144L92.7943 499.387L62.6633 410.398ZM221.278 443.681L160.873 399.257L130.742 310.268L130.742 310.127L70.3382 265.703L40.2071 176.714L40.2071 176.573L-10.3902 139.482L-10.3902 140.328L39.7808 177.278L69.9118 266.126L69.9118 266.267L130.316 310.832L160.589 399.68L160.589 399.821L220.993 444.386L246.008 518.144L246.576 518.144L221.278 443.822L221.278 443.681ZM206.212 465.963L145.808 421.539L115.535 332.55L115.535 332.409L55.1305 287.985L24.9995 198.996L24.9995 198.855L-10.5324 172.765L-10.5324 173.752L24.431 199.56L54.7042 288.408L54.7042 288.549L115.108 332.973L145.239 421.963L145.239 422.104L205.644 466.528L223.125 518.144L223.836 518.144L206.212 466.104L206.212 465.963ZM213.745 454.822L153.341 410.398L123.068 321.409L123.068 321.268L62.6633 276.844L32.5323 187.855L32.5323 187.714L-10.3902 156.124L-10.3902 156.97L32.248 188.419L62.379 277.267L62.379 277.408L122.783 321.973L153.056 410.821L153.056 410.962L213.461 455.386L234.78 518.144L235.206 518.144L213.745 454.963L213.745 454.822ZM228.81 432.54L168.406 388.116L138.275 299.127L138.275 298.986L77.7288 254.562L47.5978 165.572L-10.5324 122.7L-10.5324 123.687L47.1714 166.137L77.3024 254.985L77.3024 255.126L137.849 299.691L167.98 388.539L167.98 388.68L228.384 433.245L257.236 518.144L257.804 518.144L228.81 432.681L228.81 432.54ZM70.196 399.398L70.196 399.257L9.79184 354.692L-10.5324 294.896L-10.5324 296.729L9.36548 355.115L9.36548 355.256L69.7697 399.821L100.043 488.669L100.043 488.81L139.839 518.144L140.976 518.144L100.469 488.246L70.196 399.398ZM77.8709 388.257L77.8709 388.116L17.4667 343.551L-10.3902 261.472L-10.3903 263.305L17.0403 344.115L77.4446 388.68L107.718 477.528L107.718 477.669L162.579 518.144L163.858 518.144L108.144 477.105L77.8709 388.257ZM40.065 443.681L-10.5324 406.59L-10.5324 407.437L39.6386 444.386L64.6531 518.144L65.2216 518.144L40.065 443.822L40.065 443.681ZM281.255 -178.819L311.529 -89.9714L311.529 -89.8303L371.933 -45.4063L402.064 43.5827L402.064 43.7238L462.61 88.1478L492.741 177.137L492.741 177.278L498 181.086L498 180.098L493.168 176.573L463.037 87.7247L463.037 87.5836L402.49 43.1596L372.359 -45.8294L372.359 -45.9705L311.955 -90.3945L281.682 -179.384L281.682 -179.525L221.278 -223.949L218.862 -231L218.293 -231L220.851 -223.384L281.255 -178.819ZM205.786 -201.102L266.19 -156.678L296.321 -67.6889L296.321 -67.5478L356.725 -23.1238L386.856 65.8652L386.856 66.0063L447.403 110.43L477.676 199.419L477.676 199.56L498 214.368L498 213.522L478.102 198.855L447.971 110.007L447.971 109.866L387.425 65.3011L357.294 -23.5469L357.294 -23.6879L296.747 -68.253L266.616 -157.101L266.616 -157.242L206.212 -201.807L196.263 -231L195.553 -231L205.786 -201.243L205.786 -201.102ZM152.914 -123.395L152.914 -123.254L213.319 -78.6891L243.45 10.1589L243.45 10.3L303.854 54.865L333.985 143.713L333.985 143.854L394.389 188.419L424.662 277.267L424.662 277.408L485.066 321.973L497.858 359.487L497.858 357.653L485.493 321.409L485.493 321.268L425.231 276.844L395.1 187.855L395.1 187.714L334.553 143.29L304.422 54.3009L304.422 54.1598L243.876 9.73584L213.745 -79.2532L213.745 -79.3943L153.341 -123.818L123.068 -212.807L98.4795 -231L97.2003 -231L122.641 -212.243L152.914 -123.395ZM160.447 -134.536L160.447 -134.395L220.851 -89.8303L250.982 -0.982326L250.982 -0.841304L311.387 43.7237L341.518 132.572L341.518 132.713L402.064 177.278L432.195 266.126L432.195 266.267L492.599 310.832L497.858 326.063L497.858 324.23L493.026 310.268L493.026 310.127L432.763 265.703L402.632 176.714L402.632 176.573L342.086 132.149L311.955 43.1596L251.551 -1.40542L221.278 -90.3945L160.873 -134.96L130.742 -223.949L121.22 -231L120.083 -231L130.316 -223.384L160.447 -134.536ZM498 -208.153L498 -209.987L493.168 -223.949L483.645 -231L482.366 -231L492.741 -223.384L498 -208.153ZM183.045 -167.819L243.592 -123.254L273.723 -34.2651L334.127 10.3L364.4 99.148L364.4 99.289L424.804 143.854L454.935 232.702L454.935 232.843L497.858 264.575L497.858 263.587L455.22 232.279L425.089 143.431L425.089 143.29L364.826 98.7249L334.553 9.87689L334.553 9.73585L274.149 -34.8292L244.018 -123.677L244.018 -123.818L183.472 -168.383L162.295 -231L161.584 -231L183.045 -167.819ZM190.72 -178.819L251.124 -134.395L281.255 -45.4063L341.66 -0.8413L371.933 88.1478L432.337 132.713L462.468 221.561L462.468 221.702L497.858 247.792L497.858 246.946L462.894 221.138L432.763 132.29L432.763 132.149L372.359 87.5836L342.228 -1.26438L342.228 -1.40542L281.824 -45.9705L251.693 -134.818L251.693 -134.96L191.004 -179.525L173.523 -231L172.954 -231L190.578 -178.96L190.72 -178.819ZM198.253 -189.961L258.657 -145.537L288.788 -56.5476L288.788 -56.4066L349.335 -11.9826L379.466 77.0065L439.87 121.572L470.001 210.561L497.858 231.151L497.858 230.164L470.569 209.996L440.296 121.148L440.296 121.007L379.892 76.4424L349.761 -12.4056L349.761 -12.5467L289.215 -57.1117L259.084 -145.96L259.084 -146.101L198.679 -190.666L184.893 -231L184.324 -231L198.111 -190.102L198.253 -189.961ZM24.431 -201.102L84.9773 -156.678L115.108 -67.6889L115.108 -67.5478L175.513 -23.1238L205.786 65.8652L205.786 66.0063L266.19 110.43L296.321 199.419L296.321 199.56L356.725 243.984L386.856 332.973L447.403 377.539L477.676 466.528L498 481.477L498 480.63L478.102 465.963L447.971 377.115L447.971 376.974L387.425 332.409L357.294 243.561L357.294 243.42L296.747 198.855L266.616 110.007L266.616 109.866L206.212 65.3011L175.939 -23.5469L175.939 -23.6879L115.535 -68.253L85.4037 -157.101L85.4037 -157.242L24.8574 -201.807L14.9085 -231L14.34 -231L24.431 -201.243L24.431 -201.102ZM32.1059 -212.243L92.5101 -167.819L122.641 -78.8301L122.641 -78.6891L183.045 -34.2651L213.319 54.724L213.319 54.865L273.723 99.289L303.854 188.278L303.854 188.419L364.258 232.843L394.389 321.832L394.389 321.973L455.077 366.397L485.208 455.386L498 464.835L498 463.989L485.635 454.822L455.504 365.974L455.504 365.833L394.958 321.268L364.826 232.42L364.826 232.279L304.422 187.714L274.149 98.866L274.149 98.7249L213.745 54.1598L183.614 -34.6882L183.614 -34.8292L123.068 -79.3943L92.9365 -168.242L92.9365 -168.383L32.3901 -212.807L26.2787 -231L25.7102 -231L31.9638 -212.384L32.1059 -212.243ZM100.043 -178.819L130.174 -89.9714L130.174 -89.8304L190.72 -45.4063L220.851 43.5827L220.851 43.7237L281.255 88.1478L311.529 177.137L311.529 177.278L371.933 221.702L402.064 310.691L402.064 310.832L462.61 355.256L492.741 444.245L492.741 444.386L498 448.194L498 447.207L493.168 443.681L463.037 354.833L463.037 354.692L402.49 310.127L372.359 221.279L372.359 221.138L311.955 176.573L281.682 87.7247L281.682 87.5836L221.278 43.1596L191.147 -45.8294L191.147 -45.9705L130.6 -90.3945L100.469 -179.384L100.469 -179.525L40.0651 -223.949L37.6489 -231L37.0804 -231L39.6386 -223.384L100.043 -178.819ZM145.239 -112.254L145.239 -112.113L205.644 -67.5478L235.775 21.3002L235.775 21.4412L296.321 66.0063L326.452 154.854L326.452 154.995L386.998 199.56L417.272 288.408L417.272 288.549L477.676 332.973L498 392.77L498 391.077L478.102 332.55L478.102 332.409L417.698 287.985L387.425 198.996L387.425 198.855L327.021 154.431L296.889 65.4421L296.889 65.3011L236.485 20.8771L206.354 -68.112L206.354 -68.253L145.808 -112.677L115.535 -201.666L115.535 -201.807L75.739 -231L74.6021 -231L115.108 -201.102L145.239 -112.254ZM9.36551 -178.819L69.7697 -134.395L100.043 -45.4063L160.447 -0.841308L190.578 88.1478L250.982 132.713L281.113 221.561L281.113 221.702L341.518 266.267L371.791 355.115L371.791 355.256L432.337 399.821L462.468 488.669L462.468 488.81L497.858 514.9L497.858 514.054L462.894 488.246L432.763 399.398L432.763 399.257L372.359 354.692L342.228 265.844L342.228 265.703L281.824 221.138L251.693 132.29L251.693 132.149L191.147 87.5836L161.016 -1.26439L161.016 -1.40543L100.611 -45.9705L70.3382 -134.818L70.3382 -134.96L9.79187 -179.525L-7.68982 -231L-8.2583 -231L9.36551 -178.96L9.36551 -178.819ZM137.707 -101.113L137.707 -100.972L198.253 -56.4066L228.384 32.4415L228.384 32.5825L288.788 77.0065L319.061 165.996L319.061 166.137L379.466 210.561L409.597 299.55L409.597 299.691L470.001 344.115L497.858 426.193L497.858 424.36L470.569 343.692L470.569 343.551L410.165 298.986L379.892 210.138L379.892 209.996L319.488 165.572L289.357 76.5834L289.357 76.4424L228.953 32.0184L198.821 -56.9707L198.821 -57.1117L138.133 -101.536L108.002 -190.525L108.002 -190.666L53.1408 -231L51.8616 -231L107.576 -189.961L137.707 -101.113ZM175.513 -156.678L235.917 -112.113L266.19 -23.2649L266.19 -23.1238L326.594 21.4412L356.725 110.289L356.725 110.43L417.129 154.995L447.403 243.843L447.403 243.984L498 281.216L498 280.37L447.829 243.42L417.698 154.431L357.294 109.866L327.021 21.0181L327.021 20.8771L266.616 -23.6879L236.485 -112.536L236.485 -112.677L175.939 -157.242L150.924 -231L150.356 -231L175.513 -156.678ZM16.8983 -189.961L77.3025 -145.537L107.576 -56.5476L107.576 -56.4066L167.98 -11.9826L198.111 77.0065L258.515 121.572L288.646 210.561L349.192 255.126L379.323 344.115L439.87 388.68L470.001 477.528L470.001 477.669L497.858 498.259L497.858 497.272L470.569 477.105L440.296 388.257L440.296 388.116L379.892 343.551L349.761 254.703L349.761 254.562L289.215 209.996L259.084 121.148L259.084 121.007L198.679 76.4424L168.406 -12.4057L168.406 -12.5467L108.002 -57.1117L77.8709 -145.96L77.8709 -146.101L17.3246 -190.666L3.68039 -231L2.96976 -231L16.8983 -190.102L16.8983 -189.961ZM213.319 -212.243L273.723 -167.819L303.854 -78.8301L303.854 -78.6891L364.258 -34.2651L394.389 54.724L394.389 54.865L455.077 99.289L485.208 188.278L485.208 188.419L498 197.727L498 196.881L485.635 187.714L455.504 98.866L455.504 98.7249L394.958 54.1598L364.826 -34.6882L364.826 -34.8292L304.422 -79.3942L274.149 -168.242L274.149 -168.383L213.745 -212.807L207.491 -231L206.923 -231L213.319 -212.384L213.319 -212.243ZM379.466 -189.961L439.87 -145.537L470.001 -56.5476L470.001 -56.4066L498 -35.9574L498 -36.8036L470.569 -57.1117L440.296 -145.96L440.296 -146.101L379.892 -190.666L366.106 -231L365.537 -231L379.466 -190.102L379.466 -189.961ZM364.4 -167.819L424.804 -123.254L454.935 -34.2651L497.858 -2.53363L497.858 -3.52083L455.22 -34.8292L425.089 -123.677L425.089 -123.818L364.826 -168.383L343.507 -231L342.939 -231L364.4 -167.819ZM356.867 -156.678L417.272 -112.113L447.403 -23.2648L447.403 -23.1238L498 14.1077L498 13.2616L447.829 -23.6879L417.698 -112.536L417.698 -112.677L357.294 -157.242L332.137 -231L331.569 -231L356.725 -156.678L356.867 -156.678ZM371.933 -178.819L432.337 -134.395L462.468 -45.4063L497.858 -19.316L497.858 -20.1622L462.894 -45.9705L432.763 -134.818L432.763 -134.96L372.359 -179.525L354.878 -231L354.167 -231L371.933 -178.96L371.933 -178.819ZM349.335 -145.537L409.739 -100.972L439.87 -12.1236L439.87 -11.9825L498 30.7491L498 29.903L440.296 -12.5467L410.165 -101.395L410.165 -101.536L349.619 -146.101L320.909 -231L320.198 -231L349.192 -145.678L349.335 -145.537ZM498 -174.73L498 -176.563L485.635 -212.807L460.905 -231L459.768 -231L485.209 -212.243L498 -174.73ZM498 -108.023L498 -109.715L470.569 -190.525L470.569 -190.666L415.708 -231L414.429 -231L470.143 -189.961L498 -108.023ZM498 -141.306L498 -143.139L478.102 -201.666L478.102 -201.807L438.306 -231L437.027 -231L477.676 -201.102L498 -141.306ZM341.66 -134.536L341.66 -134.395L402.206 -89.8303L432.337 -0.982318L432.337 -0.841296L492.741 43.7238L498 58.9548L498 57.1215L493.168 43.1596L432.763 -1.40541L402.632 -90.3945L342.086 -134.96L311.955 -223.949L302.29 -231L301.153 -231L311.529 -223.384L341.66 -134.536ZM386.998 -201.102L447.403 -156.678L477.676 -67.6889L477.676 -67.5478L498 -52.5988L498 -53.586L478.102 -68.253L447.971 -157.101L447.971 -157.242L387.425 -201.807L377.476 -231L376.907 -231L386.998 -201.243L386.998 -201.102ZM319.061 -101.113L319.061 -100.972L379.466 -56.4066L409.597 32.4415L409.597 32.5825L470.001 77.0065L497.858 159.085L497.858 157.252L470.569 76.5834L470.569 76.4424L410.165 32.0184L379.892 -56.9707L379.892 -57.1117L319.488 -101.536L289.357 -190.525L289.357 -190.666L234.496 -231L233.358 -231L288.93 -189.961L319.061 -101.113ZM334.127 -123.395L334.127 -123.254L394.531 -78.6891L424.804 10.1589L424.804 10.3L485.209 54.865L498 92.3786L498 90.5453L485.635 54.3009L485.635 54.1599L425.231 9.73585L395.1 -79.2532L395.1 -79.3942L334.553 -123.818L304.422 -212.807L279.692 -231L278.555 -231L303.996 -212.243L334.127 -123.395ZM326.594 -112.254L326.594 -112.113L386.998 -67.5478L417.272 21.3002L417.272 21.4412L477.676 66.0063L498 125.661L498 123.969L478.102 65.4421L478.102 65.3011L417.698 20.8771L387.425 -68.1119L387.425 -68.253L327.021 -112.677L296.89 -201.666L296.89 -201.807L257.236 -231L255.957 -231L296.463 -201.102L326.594 -112.254ZM394.531 -212.243L455.077 -167.819L485.209 -78.8301L485.209 -78.6891L498 -69.3812L498 -70.2274L485.635 -79.3942L455.504 -168.242L455.504 -168.383L394.958 -212.807L388.846 -231L388.278 -231L394.531 -212.384L394.531 -212.243ZM462.61 -178.819L492.741 -89.9714L492.741 -89.8303L498 -86.0226L498 -86.8687L493.168 -90.3945L463.037 -179.384L463.037 -179.525L402.49 -223.949L400.216 -231L399.506 -231L402.206 -223.384L462.61 -178.819ZM167.98 -145.537L228.384 -100.972L258.657 -12.1236L258.657 -11.9826L319.061 32.5825L349.192 121.431L349.192 121.572L409.597 166.137L439.87 254.985L439.87 255.126L498 297.857L498 297.011L440.296 254.562L410.165 165.572L349.619 121.007L319.488 32.0184L259.084 -12.5467L228.81 -101.395L228.81 -101.536L168.406 -146.101L139.554 -231L138.986 -231L167.98 -145.678L167.98 -145.537Z" fill="#FCE6E6"/>
<g style="mix-blend-mode:multiply" opacity="0.5">
<ellipse cx="242.906" cy="144.5" rx="181.906" ry="180.5" fill="#FCE6E6"/>
</g>
<path d="M200.764 188H246.114V203H200.764V188Z" fill="#123A77"/>
<rect x="102" y="48" width="238.341" height="141.734" rx="19.7768" fill="#0055D2"/>
<path d="M168.437 206.215C168.437 204.394 169.912 202.918 171.733 202.918H274.76C276.581 202.918 278.057 204.394 278.057 206.215V216.103H168.437V206.215Z" fill="#0055D2"/>
<rect x="295.496" y="98.2661" width="88.8587" height="141.734" rx="13.1845" fill="#B6D3FF"/>
<ellipse cx="339.925" cy="224.755" rx="7.88933" ry="7.82833" fill="#0055D2"/>
</g>
<defs>
<clipPath id="clip0_2107_17221">
<rect width="487" height="288" fill="white" transform="translate(-0.5)"/>
</clipPath>
</defs>
</svg>
