<svg width="1440" height="400" viewBox="0 0 1440 400" fill="none" xmlns="http://www.w3.org/2000/svg">
<g opacity="0.1">
<path d="M1012.87 212.771L972.157 253.485L824.571 106.625L322.195 608.274L-161.278 125.528L-119.838 84.0871L322.195 526.12L824.571 23.7438L1012.87 212.771Z" fill="white"/>
<path d="M1087.03 -315.781L320.016 451.233L3.03205 134.249L200.056 -62.7754L101.908 -160.197L-10.0544 -47.5079L-199.809 -237.262L-159.095 -278.703L-10.0544 -129.662L101.908 -242.351L282.211 -62.7754L85.1862 134.249L320.016 369.079L1046.32 -357.222L1087.03 -315.781Z" fill="white"/>
<path d="M1067.4 423.611L1025.96 465.051L820.938 259.303L455.97 624.271L414.529 583.557L820.938 177.149L1067.4 423.611Z" fill="white"/>
<path d="M1713 56.4623L1243.34 526.122L1014.33 296.381L1096.48 214.227L859.469 -22.0566L1209.17 -371.757L1250.61 -330.316L942.35 -22.0566L1178.63 214.227L1096.48 296.381L1243.34 443.968L1671.56 15.7488L1713 56.4623Z" fill="white"/>
<path d="M1670.11 255.663L1243.34 681.701L1067.4 505.761L1108.11 464.32L1243.34 599.547L1628.66 214.223L1670.11 255.663Z" fill="white"/>
<path d="M1557.41 -103.484L1372.02 81.908L1167 -115.843L1071.03 -19.8758L1356.03 257.849L1233.16 380.716L1161.91 309.468L1203.35 268.754L1233.16 298.562L1273.15 257.849L988.152 -19.8758L1166.27 -197.271L1371.3 0.480923L1475.26 -103.484L1262.24 -316.503L1302.96 -357.217L1557.41 -103.484Z" fill="white"/>
<path d="M1709.37 -99.8521L1377.11 232.399L1124.83 -19.8791L1165.55 -60.5926L1377.11 150.245L1668.65 -140.566L1709.37 -99.8521Z" fill="white"/>
<path d="M554.844 68.8146L322.195 302.19L148.435 128.431L312.743 -35.8773L353.457 5.56327L230.589 128.431L322.195 220.036L472.69 68.8146L93.9082 -309.967L-10.7838 -204.548L-165.641 -359.404L-124.2 -400.845L-10.7838 -286.702L93.9082 -392.121L554.844 68.8146Z" fill="white"/>
<path d="M138.259 -64.9517L-26.7764 100.811L-209.987 -82.4003L-168.547 -123.841L-26.7764 17.9294L96.8182 -105.665L138.259 -64.9517Z" fill="white"/>
<path d="M941.623 -323.049L589.014 28.832L338.917 -221.265L491.593 -373.941L533.033 -333.228L421.071 -221.265L589.014 -53.322L900.182 -364.49L941.623 -323.049Z" fill="white"/>
<path d="M-168.442 262.64L361.129 792.21L402.256 751.084L-127.315 221.513L-168.442 262.64Z" fill="white"/>
<path d="M1370.81 618.835L1411.93 659.961L1674.32 397.572L1633.2 356.445L1370.81 618.835Z" fill="white"/>
<path d="M-260.455 329.017L173.878 763.35L215.005 722.223L-219.328 287.89L-260.455 329.017Z" fill="white"/>
<path d="M776.887 369.331L1202.2 794.639L1243.32 753.512L818.014 328.204L776.887 369.331Z" fill="white"/>
<path d="M285.537 130.42L326.664 171.547L423.929 74.2823L382.802 33.1554L285.537 130.42Z" fill="white"/>
</g>
</svg>
