<svg width="112" height="125" viewBox="0 0 112 125" fill="none" xmlns="http://www.w3.org/2000/svg">
<path d="M98.5646 62.4814L86.7411 55.6526L91.8467 42.3571L81.322 31.8294L74.7833 48.7462L17.9502 15.9214L17.9502 26.268L26.9073 62.4814L17.9502 88.3481L17.9502 98.6947L98.5646 145.255L98.5646 134.908L89.6074 98.6947L98.5646 72.828L98.5646 62.4814ZM76.1717 96.1081L62.736 88.3481L62.736 103.868L53.7788 98.6947L53.7788 83.1747L40.3431 75.4147L40.3431 65.068L53.7788 72.828L53.7788 57.308L62.736 62.4814L62.736 78.0014L76.1717 85.7614L76.1717 96.1081Z" fill="#ADCAF6"/>
<path d="M80.8612 32.1357L65.2915 38.3659L75.4125 48.49L90.9822 42.2598L80.8612 32.1357Z" fill="#ADCAF6"/>
<path d="M17.8029 15.7812L3.01172 22.7902L23.253 44.5958L30.2594 32.1355L17.8029 15.7812Z" fill="#ADCAF6" stroke="#ADCAF6"/>
<path d="M16.2471 100.668L19.361 51.605L68.4055 74.1894L66.07 128.703L16.2471 100.668Z" fill="white"/>
<path d="M83.0499 68.6835L71.2265 61.8547L76.3321 48.5592L65.8074 38.0315L59.2687 54.9483L2.43555 22.1235L2.43555 32.4702L11.3927 68.6835L2.43554 94.5502L2.43554 104.897L83.0499 151.457L83.0499 141.11L74.0928 104.897L83.0499 79.0302L83.0499 68.6835ZM60.657 102.31L47.2213 94.5502L47.2213 110.07L38.2642 104.897L38.2642 89.3769L24.8284 81.6169L24.8284 71.2702L38.2642 79.0302L38.2642 63.5102L47.2213 68.6835L47.2213 84.2035L60.657 91.9635L60.657 102.31Z" fill="#0055D2"/>
</svg>
